<svg class="main-svg" xmlns="http://www.w3.org/2000/svg" xmlns:xlink="http://www.w3.org/1999/xlink" width="1200" height="800" style="" viewBox="0 0 1200 800"><rect x="0" y="0" width="1200" height="800" style="fill: rgb(255, 255, 255); fill-opacity: 1;"/><defs id="defs-25ffdc"><g class="clips"><clipPath id="clip25ffdcxyplot" class="plotclip"><rect width="966" height="740"/></clipPath><clipPath class="axesclip" id="clip25ffdcx"><rect x="20" y="0" width="966" height="800"/></clipPath><clipPath class="axesclip" id="clip25ffdcy"><rect x="0" y="40" width="1200" height="740"/></clipPath><clipPath class="axesclip" id="clip25ffdcxy"><rect x="20" y="40" width="966" height="740"/></clipPath></g><g class="gradients"/><g class="patterns"/></defs><g class="bglayer"/><g class="layer-below"><g class="imagelayer"/><g class="shapelayer"/></g><g class="cartesianlayer"><g class="subplot xy"><g class="layer-subplot"><g class="shapelayer"/><g class="imagelayer"/></g><g class="minor-gridlayer"><g class="x"/><g class="y"/></g><g class="gridlayer"><g class="x"/><g class="y"/></g><g class="zerolinelayer"/><g class="layer-between"><g class="shapelayer"/><g class="imagelayer"/></g><path class="xlines-below"/><path class="ylines-below"/><g class="overlines-below"/><g class="xaxislayer-below"/><g class="yaxislayer-below"/><g class="overaxes-below"/><g class="overplot"><g class="xy" transform="translate(20,40)" clip-path="url(#clip25ffdcxyplot)"><g class="scatterlayer mlayer"><g class="trace scatter trace25cd33" style="stroke-miterlimit: 2; opacity: 1;"><g class="fills"/><g class="errorbars"/><g class="lines"/><g class="points"><path class="point" transform="translate(423.43,245.12)" d="M12.5,0A12.5,12.5 0 1,1 0,-12.5A12.5,12.5 0 0,1 12.5,0Z" style="opacity: 1; stroke-width: 2px; fill: rgb(135, 206, 235); fill-opacity: 1; stroke: rgb(68, 68, 68); stroke-opacity: 1;"/><path class="point" transform="translate(515.01,370.61)" d="M12.5,0A12.5,12.5 0 1,1 0,-12.5A12.5,12.5 0 0,1 12.5,0Z" style="opacity: 1; stroke-width: 2px; fill: rgb(135, 206, 235); fill-opacity: 1; stroke: rgb(68, 68, 68); stroke-opacity: 1;"/><path class="point" transform="translate(475.18,404.89)" d="M12.5,0A12.5,12.5 0 1,1 0,-12.5A12.5,12.5 0 0,1 12.5,0Z" style="opacity: 1; stroke-width: 2px; fill: rgb(135, 206, 235); fill-opacity: 1; stroke: rgb(68, 68, 68); stroke-opacity: 1;"/><path class="point" transform="translate(500,477.27)" d="M12.5,0A12.5,12.5 0 1,1 0,-12.5A12.5,12.5 0 0,1 12.5,0Z" style="opacity: 1; stroke-width: 2px; fill: rgb(135, 206, 235); fill-opacity: 1; stroke: rgb(68, 68, 68); stroke-opacity: 1;"/><path class="point" transform="translate(515.66,320.66)" d="M12.5,0A12.5,12.5 0 1,1 0,-12.5A12.5,12.5 0 0,1 12.5,0Z" style="opacity: 1; stroke-width: 2px; fill: rgb(135, 206, 235); fill-opacity: 1; stroke: rgb(68, 68, 68); stroke-opacity: 1;"/><path class="point" transform="translate(340.57,393.4)" d="M12.5,0A12.5,12.5 0 1,1 0,-12.5A12.5,12.5 0 0,1 12.5,0Z" style="opacity: 1; stroke-width: 2px; fill: rgb(135, 206, 235); fill-opacity: 1; stroke: rgb(68, 68, 68); stroke-opacity: 1;"/></g><g class="text"><g class="textpoint" transform="translate(0,-19.625)"><text x="423.43" y="245.12" text-anchor="middle" style="font-family: 'Open Sans', verdana, arial, sans-serif; font-size: 12px; fill: rgb(42, 63, 95); fill-opacity: 1; white-space: pre;">Vehicle (ABC)</text></g><g class="textpoint" transform="translate(0,-19.625)"><text x="515.01" y="370.61" text-anchor="middle" style="font-family: 'Open Sans', verdana, arial, sans-serif; font-size: 12px; fill: rgb(42, 63, 95); fill-opacity: 1; white-space: pre;">Car</text></g><g class="textpoint" transform="translate(0,-19.625)"><text x="475.18" y="404.89" text-anchor="middle" style="font-family: 'Open Sans', verdana, arial, sans-serif; font-size: 12px; fill: rgb(42, 63, 95); fill-opacity: 1; white-space: pre;">Bike</text></g><g class="textpoint" transform="translate(0,-19.625)"><text x="500" y="477.27" text-anchor="middle" style="font-family: 'Open Sans', verdana, arial, sans-serif; font-size: 12px; fill: rgb(42, 63, 95); fill-opacity: 1; white-space: pre;">Truck</text></g><g class="textpoint" transform="translate(0,-19.625)"><text x="515.66" y="320.66" text-anchor="middle" style="font-family: 'Open Sans', verdana, arial, sans-serif; font-size: 12px; fill: rgb(42, 63, 95); fill-opacity: 1; white-space: pre;">ElectricMixin</text></g><g class="textpoint" transform="translate(0,-19.625)"><text x="340.57" y="393.4" text-anchor="middle" style="font-family: 'Open Sans', verdana, arial, sans-serif; font-size: 12px; fill: rgb(42, 63, 95); fill-opacity: 1; white-space: pre;">ElectricCar</text></g></g></g><g class="trace scatter trace025a06" style="stroke-miterlimit: 2; opacity: 1;"><g class="fills"/><g class="errorbars"/><g class="lines"/><g class="points"><path class="point" transform="translate(79.23,237.79)" d="M12.5,0A12.5,12.5 0 1,1 0,-12.5A12.5,12.5 0 0,1 12.5,0Z" style="opacity: 1; stroke-width: 2px; fill: rgb(255, 165, 0); fill-opacity: 1; stroke: rgb(68, 68, 68); stroke-opacity: 1;"/><path class="point" transform="translate(763.5,112.16)" d="M12.5,0A12.5,12.5 0 1,1 0,-12.5A12.5,12.5 0 0,1 12.5,0Z" style="opacity: 1; stroke-width: 2px; fill: rgb(255, 165, 0); fill-opacity: 1; stroke: rgb(68, 68, 68); stroke-opacity: 1;"/><path class="point" transform="translate(197.2,65.22)" d="M12.5,0A12.5,12.5 0 1,1 0,-12.5A12.5,12.5 0 0,1 12.5,0Z" style="opacity: 1; stroke-width: 2px; fill: rgb(255, 165, 0); fill-opacity: 1; stroke: rgb(68, 68, 68); stroke-opacity: 1;"/><path class="point" transform="translate(484.62,82.57)" d="M12.5,0A12.5,12.5 0 1,1 0,-12.5A12.5,12.5 0 0,1 12.5,0Z" style="opacity: 1; stroke-width: 2px; fill: rgb(255, 165, 0); fill-opacity: 1; stroke: rgb(68, 68, 68); stroke-opacity: 1;"/><path class="point" transform="translate(536.83,665.86)" d="M12.5,0A12.5,12.5 0 1,1 0,-12.5A12.5,12.5 0 0,1 12.5,0Z" style="opacity: 1; stroke-width: 2px; fill: rgb(255, 165, 0); fill-opacity: 1; stroke: rgb(68, 68, 68); stroke-opacity: 1;"/><path class="point" transform="translate(631.87,52.63)" d="M12.5,0A12.5,12.5 0 1,1 0,-12.5A12.5,12.5 0 0,1 12.5,0Z" style="opacity: 1; stroke-width: 2px; fill: rgb(255, 165, 0); fill-opacity: 1; stroke: rgb(68, 68, 68); stroke-opacity: 1;"/><path class="point" transform="translate(827.44,535.97)" d="M12.5,0A12.5,12.5 0 1,1 0,-12.5A12.5,12.5 0 0,1 12.5,0Z" style="opacity: 1; stroke-width: 2px; fill: rgb(255, 165, 0); fill-opacity: 1; stroke: rgb(68, 68, 68); stroke-opacity: 1;"/><path class="point" transform="translate(900.88,392.33)" d="M12.5,0A12.5,12.5 0 1,1 0,-12.5A12.5,12.5 0 0,1 12.5,0Z" style="opacity: 1; stroke-width: 2px; fill: rgb(255, 165, 0); fill-opacity: 1; stroke: rgb(68, 68, 68); stroke-opacity: 1;"/><path class="point" transform="translate(63.93,378.46)" d="M12.5,0A12.5,12.5 0 1,1 0,-12.5A12.5,12.5 0 0,1 12.5,0Z" style="opacity: 1; stroke-width: 2px; fill: rgb(255, 165, 0); fill-opacity: 1; stroke: rgb(68, 68, 68); stroke-opacity: 1;"/></g><g class="text"><g class="textpoint" transform="translate(0,-19.625)"><text x="79.23" y="237.79" text-anchor="middle" style="font-family: 'Open Sans', verdana, arial, sans-serif; font-size: 12px; fill: rgb(42, 63, 95); fill-opacity: 1; white-space: pre;">start()</text></g><g class="textpoint" transform="translate(0,-19.625)"><text x="763.5" y="112.16" text-anchor="middle" style="font-family: 'Open Sans', verdana, arial, sans-serif; font-size: 12px; fill: rgb(42, 63, 95); fill-opacity: 1; white-space: pre;">stop()</text></g><g class="textpoint" transform="translate(0,-19.625)"><text x="197.2" y="65.22" text-anchor="middle" style="font-family: 'Open Sans', verdana, arial, sans-serif; font-size: 12px; fill: rgb(42, 63, 95); fill-opacity: 1; white-space: pre;">info() [abstract]</text></g><g class="textpoint" transform="translate(0,-19.625)"><text x="484.62" y="82.57" text-anchor="middle" style="font-family: 'Open Sans', verdana, arial, sans-serif; font-size: 12px; fill: rgb(42, 63, 95); fill-opacity: 1; white-space: pre;">honk()</text></g><g class="textpoint" transform="translate(0,-19.625)"><text x="536.83" y="665.86" text-anchor="middle" style="font-family: 'Open Sans', verdana, arial, sans-serif; font-size: 12px; fill: rgb(42, 63, 95); fill-opacity: 1; white-space: pre;">info()</text></g><g class="textpoint" transform="translate(0,-19.625)"><text x="631.87" y="52.63" text-anchor="middle" style="font-family: 'Open Sans', verdana, arial, sans-serif; font-size: 12px; fill: rgb(42, 63, 95); fill-opacity: 1; white-space: pre;">wheelie()</text></g><g class="textpoint" transform="translate(0,-19.625)"><text x="827.44" y="535.97" text-anchor="middle" style="font-family: 'Open Sans', verdana, arial, sans-serif; font-size: 12px; fill: rgb(42, 63, 95); fill-opacity: 1; white-space: pre;">load()</text></g><g class="textpoint" transform="translate(0,-19.625)"><text x="900.88" y="392.33" text-anchor="middle" style="font-family: 'Open Sans', verdana, arial, sans-serif; font-size: 12px; fill: rgb(42, 63, 95); fill-opacity: 1; white-space: pre;">charge()</text></g><g class="textpoint" transform="translate(0,-19.625)"><text x="63.93" y="378.46" text-anchor="middle" style="font-family: 'Open Sans', verdana, arial, sans-serif; font-size: 12px; fill: rgb(42, 63, 95); fill-opacity: 1; white-space: pre;">battery_status()</text></g></g></g><g class="trace scatter trace06adde" style="stroke-miterlimit: 2; opacity: 1;"><g class="fills"/><g class="errorbars"/><g class="lines"/><g class="points"><path class="point" transform="translate(902.08,275.91)" d="M12.5,0A12.5,12.5 0 1,1 0,-12.5A12.5,12.5 0 0,1 12.5,0Z" style="opacity: 1; stroke-width: 2px; fill: rgb(144, 238, 144); fill-opacity: 1; stroke: rgb(68, 68, 68); stroke-opacity: 1;"/><path class="point" transform="translate(247.81,643.35)" d="M12.5,0A12.5,12.5 0 1,1 0,-12.5A12.5,12.5 0 0,1 12.5,0Z" style="opacity: 1; stroke-width: 2px; fill: rgb(144, 238, 144); fill-opacity: 1; stroke: rgb(68, 68, 68); stroke-opacity: 1;"/><path class="point" transform="translate(93.76,495.4)" d="M12.5,0A12.5,12.5 0 1,1 0,-12.5A12.5,12.5 0 0,1 12.5,0Z" style="opacity: 1; stroke-width: 2px; fill: rgb(144, 238, 144); fill-opacity: 1; stroke: rgb(68, 68, 68); stroke-opacity: 1;"/><path class="point" transform="translate(189.76,564.63)" d="M12.5,0A12.5,12.5 0 1,1 0,-12.5A12.5,12.5 0 0,1 12.5,0Z" style="opacity: 1; stroke-width: 2px; fill: rgb(144, 238, 144); fill-opacity: 1; stroke: rgb(68, 68, 68); stroke-opacity: 1;"/><path class="point" transform="translate(665.18,669.57)" d="M12.5,0A12.5,12.5 0 1,1 0,-12.5A12.5,12.5 0 0,1 12.5,0Z" style="opacity: 1; stroke-width: 2px; fill: rgb(144, 238, 144); fill-opacity: 1; stroke: rgb(68, 68, 68); stroke-opacity: 1;"/><path class="point" transform="translate(892.5,165.44)" d="M12.5,0A12.5,12.5 0 1,1 0,-12.5A12.5,12.5 0 0,1 12.5,0Z" style="opacity: 1; stroke-width: 2px; fill: rgb(144, 238, 144); fill-opacity: 1; stroke: rgb(68, 68, 68); stroke-opacity: 1;"/><path class="point" transform="translate(394.32,687.38)" d="M12.5,0A12.5,12.5 0 1,1 0,-12.5A12.5,12.5 0 0,1 12.5,0Z" style="opacity: 1; stroke-width: 2px; fill: rgb(144, 238, 144); fill-opacity: 1; stroke: rgb(68, 68, 68); stroke-opacity: 1;"/></g><g class="text"><g class="textpoint" transform="translate(0,-19.625)"><text x="902.08" y="275.91" text-anchor="middle" style="font-family: 'Open Sans', verdana, arial, sans-serif; font-size: 12px; fill: rgb(42, 63, 95); fill-opacity: 1; white-space: pre;">brand</text></g><g class="textpoint" transform="translate(0,-19.625)"><text x="247.81" y="643.35" text-anchor="middle" style="font-family: 'Open Sans', verdana, arial, sans-serif; font-size: 12px; fill: rgb(42, 63, 95); fill-opacity: 1; white-space: pre;">model</text></g><g class="textpoint" transform="translate(0,-19.625)"><text x="93.76" y="495.4" text-anchor="middle" style="font-family: 'Open Sans', verdana, arial, sans-serif; font-size: 12px; fill: rgb(42, 63, 95); fill-opacity: 1; white-space: pre;">seats</text></g><g class="textpoint" transform="translate(0,-19.625)"><text x="189.76" y="564.63" text-anchor="middle" style="font-family: 'Open Sans', verdana, arial, sans-serif; font-size: 12px; fill: rgb(42, 63, 95); fill-opacity: 1; white-space: pre;">cc</text></g><g class="textpoint" transform="translate(0,-19.625)"><text x="665.18" y="669.57" text-anchor="middle" style="font-family: 'Open Sans', verdana, arial, sans-serif; font-size: 12px; fill: rgb(42, 63, 95); fill-opacity: 1; white-space: pre;">capacity</text></g><g class="textpoint" transform="translate(0,-19.625)"><text x="892.5" y="165.44" text-anchor="middle" style="font-family: 'Open Sans', verdana, arial, sans-serif; font-size: 12px; fill: rgb(42, 63, 95); fill-opacity: 1; white-space: pre;">battery_capacity</text></g><g class="textpoint" transform="translate(0,-19.625)"><text x="394.32" y="687.38" text-anchor="middle" style="font-family: 'Open Sans', verdana, arial, sans-serif; font-size: 12px; fill: rgb(42, 63, 95); fill-opacity: 1; white-space: pre;">charge_level</text></g></g></g><g class="trace scatter trace696ca8" style="stroke-miterlimit: 2; opacity: 1;"><g class="fills"/><g class="errorbars"/><g class="lines"/><g class="points"/><g class="text"/></g><g class="trace scatter tracef238cc" style="stroke-miterlimit: 2; opacity: 1;"><g class="fills"/><g class="errorbars"/><g class="lines"/><g class="points"/><g class="text"/></g></g></g></g><g class="zerolinelayer-above"/><path class="xlines-above crisp" d="M0,0" style="fill: none;"/><path class="ylines-above crisp" d="M0,0" style="fill: none;"/><g class="overlines-above"/><g class="xaxislayer-above"/><g class="yaxislayer-above"/><g class="overaxes-above"/></g></g><g class="polarlayer"/><g class="smithlayer"/><g class="ternarylayer"/><g class="geolayer"/><g class="funnelarealayer"/><g class="pielayer"/><g class="iciclelayer"/><g class="treemaplayer"/><g class="sunburstlayer"/><g class="glimages"/><defs id="topdefs-25ffdc"><g class="clips"/><clipPath id="legend25ffdc"><rect width="154" height="105" x="0" y="0"/></clipPath></defs><g class="layer-above"><g class="imagelayer"/><g class="shapelayer"/></g><g class="infolayer"><g class="legend" pointer-events="all" transform="translate(1034.3000000000002,40)"><rect class="bg" shape-rendering="crispEdges" style="stroke: rgb(0, 0, 0); stroke-opacity: 1; fill: rgb(255, 255, 255); fill-opacity: 0.7; stroke-width: 0px;" width="154" height="105" x="0" y="0"/><g class="scrollbox" transform="" clip-path="url(#legend25ffdc)"><g class="groups"><g class="traces" transform="translate(0,14.5)" style="opacity: 1;"><text class="legendtext" text-anchor="start" x="40" y="4.680000000000001" style="font-family: 'Open Sans', verdana, arial, sans-serif; font-size: 12px; fill: rgb(42, 63, 95); fill-opacity: 1; white-space: pre;">Class</text><g class="layers" style="opacity: 1;"><g class="legendfill"/><g class="legendlines"/><g class="legendsymbols"><g class="legendpoints"><path class="scatterpts" transform="translate(20,0)" d="M8,0A8,8 0 1,1 0,-8A8,8 0 0,1 8,0Z" style="opacity: 1; stroke-width: 2px; fill: rgb(135, 206, 235); fill-opacity: 1; stroke: rgb(68, 68, 68); stroke-opacity: 1;"/></g></g></g><rect class="legendtoggle" x="0" y="-9.5" width="148.015625" height="19" style="fill: rgb(0, 0, 0); fill-opacity: 0;"/></g><g class="traces" transform="translate(0,33.5)" style="opacity: 1;"><text class="legendtext" text-anchor="start" x="40" y="4.680000000000001" style="font-family: 'Open Sans', verdana, arial, sans-serif; font-size: 12px; fill: rgb(42, 63, 95); fill-opacity: 1; white-space: pre;">Method</text><g class="layers" style="opacity: 1;"><g class="legendfill"/><g class="legendlines"/><g class="legendsymbols"><g class="legendpoints"><path class="scatterpts" transform="translate(20,0)" d="M8,0A8,8 0 1,1 0,-8A8,8 0 0,1 8,0Z" style="opacity: 1; stroke-width: 2px; fill: rgb(255, 165, 0); fill-opacity: 1; stroke: rgb(68, 68, 68); stroke-opacity: 1;"/></g></g></g><rect class="legendtoggle" x="0" y="-9.5" width="148.015625" height="19" style="fill: rgb(0, 0, 0); fill-opacity: 0;"/></g><g class="traces" transform="translate(0,52.5)" style="opacity: 1;"><text class="legendtext" text-anchor="start" x="40" y="4.680000000000001" style="font-family: 'Open Sans', verdana, arial, sans-serif; font-size: 12px; fill: rgb(42, 63, 95); fill-opacity: 1; white-space: pre;">Attribute</text><g class="layers" style="opacity: 1;"><g class="legendfill"/><g class="legendlines"/><g class="legendsymbols"><g class="legendpoints"><path class="scatterpts" transform="translate(20,0)" d="M8,0A8,8 0 1,1 0,-8A8,8 0 0,1 8,0Z" style="opacity: 1; stroke-width: 2px; fill: rgb(144, 238, 144); fill-opacity: 1; stroke: rgb(68, 68, 68); stroke-opacity: 1;"/></g></g></g><rect class="legendtoggle" x="0" y="-9.5" width="148.015625" height="19" style="fill: rgb(0, 0, 0); fill-opacity: 0;"/></g><g class="traces" transform="translate(0,71.5)" style="opacity: 1;"><text class="legendtext" text-anchor="start" x="40" y="4.680000000000001" style="font-family: 'Open Sans', verdana, arial, sans-serif; font-size: 12px; fill: rgb(42, 63, 95); fill-opacity: 1; white-space: pre;">Inheritance edge</text><g class="layers" style="opacity: 1;"><g class="legendfill"/><g class="legendlines"><path class="js-line" d="M5,0h30" style="fill: none; stroke: rgb(0, 0, 255); stroke-opacity: 1; stroke-width: 2px;"/></g><g class="legendsymbols"><g class="legendpoints"/></g></g><rect class="legendtoggle" x="0" y="-9.5" width="148.015625" height="19" style="fill: rgb(0, 0, 0); fill-opacity: 0;"/></g><g class="traces" transform="translate(0,90.5)" style="opacity: 1;"><text class="legendtext" text-anchor="start" x="40" y="4.680000000000001" style="font-family: 'Open Sans', verdana, arial, sans-serif; font-size: 12px; fill: rgb(42, 63, 95); fill-opacity: 1; white-space: pre;">Composition edge</text><g class="layers" style="opacity: 1;"><g class="legendfill"/><g class="legendlines"><path class="js-line" d="M5,0h30" style="fill: none; stroke: rgb(0, 128, 0); stroke-opacity: 1; stroke-width: 2px;"/></g><g class="legendsymbols"><g class="legendpoints"/></g></g><rect class="legendtoggle" x="0" y="-9.5" width="148.015625" height="19" style="fill: rgb(0, 0, 0); fill-opacity: 0;"/></g></g></g><rect class="scrollbar" rx="20" ry="3" width="0" height="0" style="fill: rgb(128, 139, 164); fill-opacity: 1;" x="0" y="0"/></g><g class="g-gtitle"><text class="gtitle" x="600" y="20" text-anchor="middle" dy="0em" style="opacity: 1; font-family: 'Open Sans', verdana, arial, sans-serif; font-size: 17px; fill: rgb(42, 63, 95); fill-opacity: 1; white-space: pre;">Interactive Directed Flowchart of Classes, Methods, and Attributes</text></g><g class="g-xtitle"/><g class="g-ytitle"/><g class="annotation" data-index="0" style="opacity: 1;"><g class="annotation-text-g" transform="rotate(0,443.43,285.12)"><g class="cursor-pointer" transform="translate(439,276)"><rect class="bg" x="0.5" y="0.5" width="7" height="18" style="stroke-width: 1px; stroke: rgb(0, 0, 0); stroke-opacity: 0; fill: rgb(0, 0, 0); fill-opacity: 0;"/><text class="annotation-text" text-anchor="middle" x="4.109375" y="14" style="font-family: 'Open Sans', verdana, arial, sans-serif; font-size: 12px; fill: rgb(42, 63, 95); fill-opacity: 1; white-space: pre;"> </text></g></g><g class="annotation-arrow-g" style="opacity: 1;"><path d="M446.93,285.34514363313485L922.08,315.91" style="stroke-width: 1.5px; stroke: rgb(0, 128, 0); stroke-opacity: 1; stroke-dasharray: 0px, 0px, 473.342px, 476.132px;"/><path d="M-4.45,-3L-1.65,-0.2V0.2L-4.45,3L1.55,0Z" transform="translate(919.2957763671875,315.73089599609375)rotate(3.674499520829663)scale(1.7999999999999998)" style="fill: rgb(0, 128, 0); stroke-width: 0;"/></g></g><g class="annotation" data-index="1" style="opacity: 1;"><g class="annotation-text-g" transform="rotate(0,443.43,285.12)"><g class="cursor-pointer" transform="translate(439,276)"><rect class="bg" x="0.5" y="0.5" width="7" height="18" style="stroke-width: 1px; stroke: rgb(0, 0, 0); stroke-opacity: 0; fill: rgb(0, 0, 0); fill-opacity: 0;"/><text class="annotation-text" text-anchor="middle" x="4.109375" y="14" style="font-family: 'Open Sans', verdana, arial, sans-serif; font-size: 12px; fill: rgb(42, 63, 95); fill-opacity: 1; white-space: pre;"> </text></g></g><g class="annotation-arrow-g" style="opacity: 1;"><path d="M439.93,293.05648217742856L267.81,683.35" style="stroke-width: 1.5px; stroke: rgb(0, 128, 0); stroke-opacity: 1; stroke-dasharray: 0px, 0px, 423.771px, 426.561px;"/><path d="M-4.45,-3L-1.65,-0.2V0.2L-4.45,3L1.55,0Z" transform="translate(268.935791015625,680.7971801757812)rotate(113.79559129743991)scale(1.7999999999999998)" style="fill: rgb(0, 128, 0); stroke-width: 0;"/></g></g><g class="annotation" data-index="2" style="opacity: 1;"><g class="annotation-text-g" transform="rotate(0,443.43,285.12)"><g class="cursor-pointer" transform="translate(439,276)"><rect class="bg" x="0.5" y="0.5" width="7" height="18" style="stroke-width: 1px; stroke: rgb(0, 0, 0); stroke-opacity: 0; fill: rgb(0, 0, 0); fill-opacity: 0;"/><text class="annotation-text" text-anchor="middle" x="4.109375" y="14" style="font-family: 'Open Sans', verdana, arial, sans-serif; font-size: 12px; fill: rgb(42, 63, 95); fill-opacity: 1; white-space: pre;"> </text></g></g><g class="annotation-arrow-g" style="opacity: 1;"><path d="M439.93,285.04546484601974L99.23,277.78999999999996" style="stroke-width: 1.5px; stroke: rgb(0, 128, 0); stroke-opacity: 1; stroke-dasharray: 0px, 0px, 337.987px, 340.777px;"/><path d="M-4.45,-3L-1.65,-0.2V0.2L-4.45,3L1.55,0Z" transform="translate(102.01937866210938,277.8493957519531)rotate(-178.7760108551702)scale(1.7999999999999998)" style="fill: rgb(0, 128, 0); stroke-width: 0;"/></g></g><g class="annotation" data-index="3" style="opacity: 1;"><g class="annotation-text-g" transform="rotate(0,443.43,285.12)"><g class="cursor-pointer" transform="translate(439,276)"><rect class="bg" x="0.5" y="0.5" width="7" height="18" style="stroke-width: 1px; stroke: rgb(0, 0, 0); stroke-opacity: 0; fill: rgb(0, 0, 0); fill-opacity: 0;"/><text class="annotation-text" text-anchor="middle" x="4.109375" y="14" style="font-family: 'Open Sans', verdana, arial, sans-serif; font-size: 12px; fill: rgb(42, 63, 95); fill-opacity: 1; white-space: pre;"> </text></g></g><g class="annotation-arrow-g" style="opacity: 1;"><path d="M446.93,283.75157585203044L783.5,152.16" style="stroke-width: 1.5px; stroke: rgb(0, 128, 0); stroke-opacity: 1; stroke-dasharray: 0px, 0px, 358.59px, 361.38px;"/><path d="M-4.45,-3L-1.65,-0.2V0.2L-4.45,3L1.55,0Z" transform="translate(780.9015502929688,153.1759490966797)rotate(-21.358233992884756)scale(1.7999999999999998)" style="fill: rgb(0, 128, 0); stroke-width: 0;"/></g></g><g class="annotation" data-index="4" style="opacity: 1;"><g class="annotation-text-g" transform="rotate(0,443.43,285.12)"><g class="cursor-pointer" transform="translate(439,276)"><rect class="bg" x="0.5" y="0.5" width="7" height="18" style="stroke-width: 1px; stroke: rgb(0, 0, 0); stroke-opacity: 0; fill: rgb(0, 0, 0); fill-opacity: 0;"/><text class="annotation-text" text-anchor="middle" x="4.109375" y="14" style="font-family: 'Open Sans', verdana, arial, sans-serif; font-size: 12px; fill: rgb(42, 63, 95); fill-opacity: 1; white-space: pre;"> </text></g></g><g class="annotation-arrow-g" style="opacity: 1;"><path d="M439.93,282.33677054325244L217.2,105.22" style="stroke-width: 1.5px; stroke: rgb(0, 128, 0); stroke-opacity: 1; stroke-dasharray: 0px, 0px, 281.778px, 284.568px;"/><path d="M-4.45,-3L-1.65,-0.2V0.2L-4.45,3L1.55,0Z" transform="translate(219.38372802734375,106.9565200805664)rotate(-141.51085254891103)scale(1.7999999999999998)" style="fill: rgb(0, 128, 0); stroke-width: 0;"/></g></g><g class="annotation" data-index="5" style="opacity: 1;"><g class="annotation-text-g" transform="rotate(0,535.01,410.61)"><g class="cursor-pointer" transform="translate(531,401)"><rect class="bg" x="0.5" y="0.5" width="7" height="18" style="stroke-width: 1px; stroke: rgb(0, 0, 0); stroke-opacity: 0; fill: rgb(0, 0, 0); fill-opacity: 0;"/><text class="annotation-text" text-anchor="middle" x="4.109375" y="14" style="font-family: 'Open Sans', verdana, arial, sans-serif; font-size: 12px; fill: rgb(42, 63, 95); fill-opacity: 1; white-space: pre;"> </text></g></g><g class="annotation-arrow-g" style="opacity: 1;"><path d="M531.51,411.6468308605341L113.76,535.4" style="stroke-width: 1.5px; stroke: rgb(0, 128, 0); stroke-opacity: 1; stroke-dasharray: 0px, 0px, 432.905px, 435.695px;"/><path d="M-4.45,-3L-1.65,-0.2V0.2L-4.45,3L1.55,0Z" transform="translate(116.43509674072266,534.6075439453125)rotate(163.51178282168166)scale(1.7999999999999998)" style="fill: rgb(0, 128, 0); stroke-width: 0;"/></g></g><g class="annotation" data-index="6" style="opacity: 1;"><g class="annotation-text-g" transform="rotate(0,535.01,410.61)"><g class="cursor-pointer" transform="translate(531,401)"><rect class="bg" x="0.5" y="0.5" width="7" height="18" style="stroke-width: 1px; stroke: rgb(0, 0, 0); stroke-opacity: 0; fill: rgb(0, 0, 0); fill-opacity: 0;"/><text class="annotation-text" text-anchor="middle" x="4.109375" y="14" style="font-family: 'Open Sans', verdana, arial, sans-serif; font-size: 12px; fill: rgb(42, 63, 95); fill-opacity: 1; white-space: pre;"> </text></g></g><g class="annotation-arrow-g" style="opacity: 1;"><path d="M534.0604443827247,401.61L504.62,122.57" style="stroke-width: 1.5px; stroke: rgb(0, 128, 0); stroke-opacity: 1; stroke-dasharray: 0px, 0px, 277.799px, 280.589px;"/><path d="M-4.45,-3L-1.65,-0.2V0.2L-4.45,3L1.55,0Z" transform="translate(504.9127197265625,125.3446044921875)rotate(-96.02547841357627)scale(1.7999999999999998)" style="fill: rgb(0, 128, 0); stroke-width: 0;"/></g></g><g class="annotation" data-index="7" style="opacity: 1;"><g class="annotation-text-g" transform="rotate(0,535.01,410.61)"><g class="cursor-pointer" transform="translate(531,401)"><rect class="bg" x="0.5" y="0.5" width="7" height="18" style="stroke-width: 1px; stroke: rgb(0, 0, 0); stroke-opacity: 0; fill: rgb(0, 0, 0); fill-opacity: 0;"/><text class="annotation-text" text-anchor="middle" x="4.109375" y="14" style="font-family: 'Open Sans', verdana, arial, sans-serif; font-size: 12px; fill: rgb(42, 63, 95); fill-opacity: 1; white-space: pre;"> </text></g></g><g class="annotation-arrow-g" style="opacity: 1;"><path d="M535.6751312447078,419.61L556.83,705.86" style="stroke-width: 1.5px; stroke: rgb(0, 128, 0); stroke-opacity: 1; stroke-dasharray: 0px, 0px, 284.241px, 287.031px;"/><path d="M-4.45,-3L-1.65,-0.2V0.2L-4.45,3L1.55,0Z" transform="translate(556.6243896484375,703.0775756835938)rotate(85.76489681003729)scale(1.7999999999999998)" style="fill: rgb(0, 128, 0); stroke-width: 0;"/></g></g><g class="annotation" data-index="8" style="opacity: 1;"><g class="annotation-text-g" transform="rotate(0,535.01,410.61)"><g class="cursor-pointer" transform="translate(531,401)"><rect class="bg" x="0.5" y="0.5" width="7" height="18" style="stroke-width: 1px; stroke: rgb(0, 0, 0); stroke-opacity: 0; fill: rgb(0, 0, 0); fill-opacity: 0;"/><text class="annotation-text" text-anchor="middle" x="4.109375" y="14" style="font-family: 'Open Sans', verdana, arial, sans-serif; font-size: 12px; fill: rgb(42, 63, 95); fill-opacity: 1; white-space: pre;"> </text></g></g><g class="annotation-arrow-g" style="opacity: 1;"><path d="M531.51,405.81402926403143L443.43,285.12" style="stroke-width: 1.5px; stroke: rgb(0, 0, 255); stroke-opacity: 1; stroke-dasharray: 0px, 0px, 146.626px, 149.416px;"/><path d="M-4.45,-3L-1.65,-0.2V0.2L-4.45,3L1.55,0Z" transform="translate(445.0746765136719,287.3736877441406)rotate(-126.12506649580153)scale(1.7999999999999998)" style="fill: rgb(0, 0, 255); stroke-width: 0;"/></g></g><g class="annotation" data-index="9" style="opacity: 1;"><g class="annotation-text-g" transform="rotate(0,495.18,444.89)"><g class="cursor-pointer" transform="translate(491,435)"><rect class="bg" x="0.5" y="0.5" width="7" height="18" style="stroke-width: 1px; stroke: rgb(0, 0, 0); stroke-opacity: 0; fill: rgb(0, 0, 0); fill-opacity: 0;"/><text class="annotation-text" text-anchor="middle" x="4.109375" y="14" style="font-family: 'Open Sans', verdana, arial, sans-serif; font-size: 12px; fill: rgb(42, 63, 95); fill-opacity: 1; white-space: pre;"> </text></g></g><g class="annotation-arrow-g" style="opacity: 1;"><path d="M491.68,446.8488325975755L209.76,604.63" style="stroke-width: 1.5px; stroke: rgb(0, 128, 0); stroke-opacity: 1; stroke-dasharray: 0px, 0px, 320.279px, 323.069px;"/><path d="M-4.45,-3L-1.65,-0.2V0.2L-4.45,3L1.55,0Z" transform="translate(212.19464111328125,603.2673950195312)rotate(150.77131224043154)scale(1.7999999999999998)" style="fill: rgb(0, 128, 0); stroke-width: 0;"/></g></g><g class="annotation" data-index="10" style="opacity: 1;"><g class="annotation-text-g" transform="rotate(0,495.18,444.89)"><g class="cursor-pointer" transform="translate(491,435)"><rect class="bg" x="0.5" y="0.5" width="7" height="18" style="stroke-width: 1px; stroke: rgb(0, 0, 0); stroke-opacity: 0; fill: rgb(0, 0, 0); fill-opacity: 0;"/><text class="annotation-text" text-anchor="middle" x="4.109375" y="14" style="font-family: 'Open Sans', verdana, arial, sans-serif; font-size: 12px; fill: rgb(42, 63, 95); fill-opacity: 1; white-space: pre;"> </text></g></g><g class="annotation-arrow-g" style="opacity: 1;"><path d="M498.68,437.0215336013785L651.87,92.63" style="stroke-width: 1.5px; stroke: rgb(0, 128, 0); stroke-opacity: 1; stroke-dasharray: 0px, 0px, 374.135px, 376.925px;"/><path d="M-4.45,-3L-1.65,-0.2V0.2L-4.45,3L1.55,0Z" transform="translate(650.736083984375,95.17919158935547)rotate(-66.017984173627)scale(1.7999999999999998)" style="fill: rgb(0, 128, 0); stroke-width: 0;"/></g></g><g class="annotation" data-index="11" style="opacity: 1;"><g class="annotation-text-g" transform="rotate(0,495.18,444.89)"><g class="cursor-pointer" transform="translate(491,435)"><rect class="bg" x="0.5" y="0.5" width="7" height="18" style="stroke-width: 1px; stroke: rgb(0, 0, 0); stroke-opacity: 0; fill: rgb(0, 0, 0); fill-opacity: 0;"/><text class="annotation-text" text-anchor="middle" x="4.109375" y="14" style="font-family: 'Open Sans', verdana, arial, sans-serif; font-size: 12px; fill: rgb(42, 63, 95); fill-opacity: 1; white-space: pre;"> </text></g></g><g class="annotation-arrow-g" style="opacity: 1;"><path d="M497.30610644901714,453.89L556.83,705.86" style="stroke-width: 1.5px; stroke: rgb(0, 128, 0); stroke-opacity: 1; stroke-dasharray: 0px, 0px, 256.115px, 258.905px;"/><path d="M-4.45,-3L-1.65,-0.2V0.2L-4.45,3L1.55,0Z" transform="translate(556.1885986328125,703.1447143554688)rotate(76.70142966950573)scale(1.7999999999999998)" style="fill: rgb(0, 128, 0); stroke-width: 0;"/></g></g><g class="annotation" data-index="12" style="opacity: 1;"><g class="annotation-text-g" transform="rotate(0,495.18,444.89)"><g class="cursor-pointer" transform="translate(491,435)"><rect class="bg" x="0.5" y="0.5" width="7" height="18" style="stroke-width: 1px; stroke: rgb(0, 0, 0); stroke-opacity: 0; fill: rgb(0, 0, 0); fill-opacity: 0;"/><text class="annotation-text" text-anchor="middle" x="4.109375" y="14" style="font-family: 'Open Sans', verdana, arial, sans-serif; font-size: 12px; fill: rgb(42, 63, 95); fill-opacity: 1; white-space: pre;"> </text></g></g><g class="annotation-arrow-g" style="opacity: 1;"><path d="M492.26487200350505,435.89L443.43,285.12" style="stroke-width: 1.5px; stroke: rgb(0, 0, 255); stroke-opacity: 1; stroke-dasharray: 0px, 0px, 155.692px, 158.482px;"/><path d="M-4.45,-3L-1.65,-0.2V0.2L-4.45,3L1.55,0Z" transform="translate(444.2897033691406,287.77423095703125)rotate(-107.94846605251115)scale(1.7999999999999998)" style="fill: rgb(0, 0, 255); stroke-width: 0;"/></g></g><g class="annotation" data-index="13" style="opacity: 1;"><g class="annotation-text-g" transform="rotate(0,520,517.27)"><g class="cursor-pointer" transform="translate(516,508)"><rect class="bg" x="0.5" y="0.5" width="7" height="18" style="stroke-width: 1px; stroke: rgb(0, 0, 0); stroke-opacity: 0; fill: rgb(0, 0, 0); fill-opacity: 0;"/><text class="annotation-text" text-anchor="middle" x="4.109375" y="14" style="font-family: 'Open Sans', verdana, arial, sans-serif; font-size: 12px; fill: rgb(42, 63, 95); fill-opacity: 1; white-space: pre;"> </text></g></g><g class="annotation-arrow-g" style="opacity: 1;"><path d="M523.5,521.3446458409009L685.18,709.57" style="stroke-width: 1.5px; stroke: rgb(0, 128, 0); stroke-opacity: 1; stroke-dasharray: 0px, 0px, 245.341px, 248.131px;"/><path d="M-4.45,-3L-1.65,-0.2V0.2L-4.45,3L1.55,0Z" transform="translate(683.362060546875,707.45361328125)rotate(49.33044646669603)scale(1.7999999999999998)" style="fill: rgb(0, 128, 0); stroke-width: 0;"/></g></g><g class="annotation" data-index="14" style="opacity: 1;"><g class="annotation-text-g" transform="rotate(0,520,517.27)"><g class="cursor-pointer" transform="translate(516,508)"><rect class="bg" x="0.5" y="0.5" width="7" height="18" style="stroke-width: 1px; stroke: rgb(0, 0, 0); stroke-opacity: 0; fill: rgb(0, 0, 0); fill-opacity: 0;"/><text class="annotation-text" text-anchor="middle" x="4.109375" y="14" style="font-family: 'Open Sans', verdana, arial, sans-serif; font-size: 12px; fill: rgb(42, 63, 95); fill-opacity: 1; white-space: pre;"> </text></g></g><g class="annotation-arrow-g" style="opacity: 1;"><path d="M523.5,517.8974431956999L847.44,575.97" style="stroke-width: 1.5px; stroke: rgb(0, 128, 0); stroke-opacity: 1; stroke-dasharray: 0px, 0px, 326.314px, 329.104px;"/><path d="M-4.45,-3L-1.65,-0.2V0.2L-4.45,3L1.55,0Z" transform="translate(844.6937866210938,575.4776611328125)rotate(10.157862366930152)scale(1.7999999999999998)" style="fill: rgb(0, 128, 0); stroke-width: 0;"/></g></g><g class="annotation" data-index="15" style="opacity: 1;"><g class="annotation-text-g" transform="rotate(0,520,517.27)"><g class="cursor-pointer" transform="translate(516,508)"><rect class="bg" x="0.5" y="0.5" width="7" height="18" style="stroke-width: 1px; stroke: rgb(0, 0, 0); stroke-opacity: 0; fill: rgb(0, 0, 0); fill-opacity: 0;"/><text class="annotation-text" text-anchor="middle" x="4.109375" y="14" style="font-family: 'Open Sans', verdana, arial, sans-serif; font-size: 12px; fill: rgb(42, 63, 95); fill-opacity: 1; white-space: pre;"> </text></g></g><g class="annotation-arrow-g" style="opacity: 1;"><path d="M521.7576223553741,526.27L556.83,705.86" style="stroke-width: 1.5px; stroke: rgb(0, 128, 0); stroke-opacity: 1; stroke-dasharray: 0px, 0px, 180.193px, 182.983px;"/><path d="M-4.45,-3L-1.65,-0.2V0.2L-4.45,3L1.55,0Z" transform="translate(556.2952270507812,703.1217041015625)rotate(78.95068813950307)scale(1.7999999999999998)" style="fill: rgb(0, 128, 0); stroke-width: 0;"/></g></g><g class="annotation" data-index="16" style="opacity: 1;"><g class="annotation-text-g" transform="rotate(0,520,517.27)"><g class="cursor-pointer" transform="translate(516,508)"><rect class="bg" x="0.5" y="0.5" width="7" height="18" style="stroke-width: 1px; stroke: rgb(0, 0, 0); stroke-opacity: 0; fill: rgb(0, 0, 0); fill-opacity: 0;"/><text class="annotation-text" text-anchor="middle" x="4.109375" y="14" style="font-family: 'Open Sans', verdana, arial, sans-serif; font-size: 12px; fill: rgb(42, 63, 95); fill-opacity: 1; white-space: pre;"> </text></g></g><g class="annotation-arrow-g" style="opacity: 1;"><path d="M517.0315313374973,508.27L443.43,285.12" style="stroke-width: 1.5px; stroke: rgb(0, 0, 255); stroke-opacity: 1; stroke-dasharray: 0px, 0px, 232.185px, 234.975px;"/><path d="M-4.45,-3L-1.65,-0.2V0.2L-4.45,3L1.55,0Z" transform="translate(444.30389404296875,287.76959228515625)rotate(-108.24694944902679)scale(1.7999999999999998)" style="fill: rgb(0, 0, 255); stroke-width: 0;"/></g></g><g class="annotation" data-index="17" style="opacity: 1;"><g class="annotation-text-g" transform="rotate(0,535.66,360.66)"><g class="cursor-pointer" transform="translate(532,351)"><rect class="bg" x="0.5" y="0.5" width="7" height="18" style="stroke-width: 1px; stroke: rgb(0, 0, 0); stroke-opacity: 0; fill: rgb(0, 0, 0); fill-opacity: 0;"/><text class="annotation-text" text-anchor="middle" x="4.109375" y="14" style="font-family: 'Open Sans', verdana, arial, sans-serif; font-size: 12px; fill: rgb(42, 63, 95); fill-opacity: 1; white-space: pre;"> </text></g></g><g class="annotation-arrow-g" style="opacity: 1;"><path d="M539.16,359.21835367795353L912.5,205.44" style="stroke-width: 1.5px; stroke: rgb(0, 128, 0); stroke-opacity: 1; stroke-dasharray: 0px, 0px, 400.98px, 403.77px;"/><path d="M-4.45,-3L-1.65,-0.2V0.2L-4.45,3L1.55,0Z" transform="translate(909.9202880859375,206.50259399414062)rotate(-22.385841234543346)scale(1.7999999999999998)" style="fill: rgb(0, 128, 0); stroke-width: 0;"/></g></g><g class="annotation" data-index="18" style="opacity: 1;"><g class="annotation-text-g" transform="rotate(0,535.66,360.66)"><g class="cursor-pointer" transform="translate(532,351)"><rect class="bg" x="0.5" y="0.5" width="7" height="18" style="stroke-width: 1px; stroke: rgb(0, 0, 0); stroke-opacity: 0; fill: rgb(0, 0, 0); fill-opacity: 0;"/><text class="annotation-text" text-anchor="middle" x="4.109375" y="14" style="font-family: 'Open Sans', verdana, arial, sans-serif; font-size: 12px; fill: rgb(42, 63, 95); fill-opacity: 1; white-space: pre;"> </text></g></g><g class="annotation-arrow-g" style="opacity: 1;"><path d="M532.6820876963351,369.66L414.32,727.38" style="stroke-width: 1.5px; stroke: rgb(0, 128, 0); stroke-opacity: 1; stroke-dasharray: 0px, 0px, 374.003px, 376.793px;"/><path d="M-4.45,-3L-1.65,-0.2V0.2L-4.45,3L1.55,0Z" transform="translate(415.1964416503906,724.731201171875)rotate(108.29675377129125)scale(1.7999999999999998)" style="fill: rgb(0, 128, 0); stroke-width: 0;"/></g></g><g class="annotation" data-index="19" style="opacity: 1;"><g class="annotation-text-g" transform="rotate(0,535.66,360.66)"><g class="cursor-pointer" transform="translate(532,351)"><rect class="bg" x="0.5" y="0.5" width="7" height="18" style="stroke-width: 1px; stroke: rgb(0, 0, 0); stroke-opacity: 0; fill: rgb(0, 0, 0); fill-opacity: 0;"/><text class="annotation-text" text-anchor="middle" x="4.109375" y="14" style="font-family: 'Open Sans', verdana, arial, sans-serif; font-size: 12px; fill: rgb(42, 63, 95); fill-opacity: 1; white-space: pre;"> </text></g></g><g class="annotation-arrow-g" style="opacity: 1;"><path d="M539.16,361.3111733554852L920.88,432.33" style="stroke-width: 1.5px; stroke: rgb(0, 128, 0); stroke-opacity: 1; stroke-dasharray: 0px, 0px, 385.48px, 388.27px;"/><path d="M-4.45,-3L-1.65,-0.2V0.2L-4.45,3L1.55,0Z" transform="translate(918.1370849609375,431.8196716308594)rotate(10.531588954008988)scale(1.7999999999999998)" style="fill: rgb(0, 128, 0); stroke-width: 0;"/></g></g><g class="annotation" data-index="20" style="opacity: 1;"><g class="annotation-text-g" transform="rotate(0,535.66,360.66)"><g class="cursor-pointer" transform="translate(532,351)"><rect class="bg" x="0.5" y="0.5" width="7" height="18" style="stroke-width: 1px; stroke: rgb(0, 0, 0); stroke-opacity: 0; fill: rgb(0, 0, 0); fill-opacity: 0;"/><text class="annotation-text" text-anchor="middle" x="4.109375" y="14" style="font-family: 'Open Sans', verdana, arial, sans-serif; font-size: 12px; fill: rgb(42, 63, 95); fill-opacity: 1; white-space: pre;"> </text></g></g><g class="annotation-arrow-g" style="opacity: 1;"><path d="M532.16,361.10783388307175L83.93,418.46" style="stroke-width: 1.5px; stroke: rgb(0, 128, 0); stroke-opacity: 1; stroke-dasharray: 0px, 0px, 449.094px, 451.884px;"/><path d="M-4.45,-3L-1.65,-0.2V0.2L-4.45,3L1.55,0Z" transform="translate(86.69744873046875,418.10589599609375)rotate(172.70691362172272)scale(1.7999999999999998)" style="fill: rgb(0, 128, 0); stroke-width: 0;"/></g></g><g class="annotation" data-index="21" style="opacity: 1;"><g class="annotation-text-g" transform="rotate(0,360.57,433.4)"><g class="cursor-pointer" transform="translate(357,424)"><rect class="bg" x="0.5" y="0.5" width="7" height="18" style="stroke-width: 1px; stroke: rgb(0, 0, 0); stroke-opacity: 0; fill: rgb(0, 0, 0); fill-opacity: 0;"/><text class="annotation-text" text-anchor="middle" x="4.109375" y="14" style="font-family: 'Open Sans', verdana, arial, sans-serif; font-size: 12px; fill: rgb(42, 63, 95); fill-opacity: 1; white-space: pre;"> </text></g></g><g class="annotation-arrow-g" style="opacity: 1;"><path d="M364.07,432.9427367576244L535.01,410.61" style="stroke-width: 1.5px; stroke: rgb(0, 0, 255); stroke-opacity: 1; stroke-dasharray: 0px, 0px, 169.603px, 172.393px;"/><path d="M-4.45,-3L-1.65,-0.2V0.2L-4.45,3L1.55,0Z" transform="translate(532.2435302734375,410.9714050292969)rotate(-7.450249068656181)scale(1.7999999999999998)" style="fill: rgb(0, 0, 255); stroke-width: 0;"/></g></g><g class="annotation" data-index="22" style="opacity: 1;"><g class="annotation-text-g" transform="rotate(0,360.57,433.4)"><g class="cursor-pointer" transform="translate(357,424)"><rect class="bg" x="0.5" y="0.5" width="7" height="18" style="stroke-width: 1px; stroke: rgb(0, 0, 0); stroke-opacity: 0; fill: rgb(0, 0, 0); fill-opacity: 0;"/><text class="annotation-text" text-anchor="middle" x="4.109375" y="14" style="font-family: 'Open Sans', verdana, arial, sans-serif; font-size: 12px; fill: rgb(42, 63, 95); fill-opacity: 1; white-space: pre;"> </text></g></g><g class="annotation-arrow-g" style="opacity: 1;"><path d="M364.07,431.94594779827514L535.66,360.66" style="stroke-width: 1.5px; stroke: rgb(0, 0, 255); stroke-opacity: 1; stroke-dasharray: 0px, 0px, 183.019px, 185.809px;"/><path d="M-4.45,-3L-1.65,-0.2V0.2L-4.45,3L1.55,0Z" transform="translate(533.08349609375,361.7303771972656)rotate(-22.557991932732048)scale(1.7999999999999998)" style="fill: rgb(0, 0, 255); stroke-width: 0;"/></g></g><g class="annotation" data-index="23" style="opacity: 1;"><g class="annotation-text-g" transform="rotate(0,360.57,433.4)"><g class="cursor-pointer" transform="translate(357,424)"><rect class="bg" x="0.5" y="0.5" width="7" height="18" style="stroke-width: 1px; stroke: rgb(0, 0, 0); stroke-opacity: 0; fill: rgb(0, 0, 0); fill-opacity: 0;"/><text class="annotation-text" text-anchor="middle" x="4.109375" y="14" style="font-family: 'Open Sans', verdana, arial, sans-serif; font-size: 12px; fill: rgb(42, 63, 95); fill-opacity: 1; white-space: pre;"> </text></g></g><g class="annotation-arrow-g" style="opacity: 1;"><path d="M364.07,438.2589116478141L556.83,705.86" style="stroke-width: 1.5px; stroke: rgb(0, 128, 0); stroke-opacity: 1; stroke-dasharray: 0px, 0px, 327.008px, 329.798px;"/><path d="M-4.45,-3L-1.65,-0.2V0.2L-4.45,3L1.55,0Z" transform="translate(555.1993408203125,703.5961303710938)rotate(54.21432527876645)scale(1.7999999999999998)" style="fill: rgb(0, 128, 0); stroke-width: 0;"/></g></g></g></svg>